<?xml version="1.0" encoding="UTF-8" standalone="no"?>
<!DOCTYPE svg PUBLIC "-//W3C//DTD SVG 1.1//EN" "http://www.w3.org/Graphics/SVG/1.1/DTD/svg11.dtd">
<svg width="100%" height="100%" viewBox="0 0 183 183" version="1.1" xmlns="http://www.w3.org/2000/svg" xmlns:xlink="http://www.w3.org/1999/xlink" xml:space="preserve" xmlns:serif="http://www.serif.com/" style="fill-rule:evenodd;clip-rule:evenodd;stroke-linejoin:round;stroke-miterlimit:2;">
    <g transform="matrix(1,0,0,1,-1312.32,-626)">
        <g id="Gracle-Logo-Dark" serif:id="Gracle Logo Dark" transform="matrix(1,0,0,1,-6.67953,269)">
            <g transform="matrix(1,0,0,1,621,44)">
                <path d="M743,323C743,320.348 741.946,317.804 740.071,315.929C738.196,314.054 735.652,313 733,313L708,313C705.348,313 702.804,314.054 700.929,315.929C699.054,317.804 698,320.348 698,323L698,348C698,350.652 699.054,353.196 700.929,355.071C702.804,356.946 705.348,358 708,358L733,358C735.652,358 738.196,356.946 740.071,355.071C741.946,353.196 743,350.652 743,348L743,323Z" style="fill:rgb(14,151,73);"/>
            </g>
            <g transform="matrix(1,0,0,1,621,113)">
                <path d="M743,323C743,320.348 741.946,317.804 740.071,315.929C738.196,314.054 735.652,313 733,313L708,313C705.348,313 702.804,314.054 700.929,315.929C699.054,317.804 698,320.348 698,323L698,348C698,350.652 699.054,353.196 700.929,355.071C702.804,356.946 705.348,358 708,358L733,358C735.652,358 738.196,356.946 740.071,355.071C741.946,353.196 743,350.652 743,348L743,323Z" style="fill:rgb(251,195,53);"/>
            </g>
            <g transform="matrix(1,0,0,1,621,182)">
                <path d="M743,323C743,320.348 741.946,317.804 740.071,315.929C738.196,314.054 735.652,313 733,313L708,313C705.348,313 702.804,314.054 700.929,315.929C699.054,317.804 698,320.348 698,323L698,348C698,350.652 699.054,353.196 700.929,355.071C702.804,356.946 705.348,358 708,358L733,358C735.652,358 738.196,356.946 740.071,355.071C741.946,353.196 743,350.652 743,348L743,323Z" style="fill:rgb(169,183,203);"/>
            </g>
            <g transform="matrix(0.672414,0,0,0.666667,871.948,148.333)">
                <path d="M937,346.75C937,340.537 932.006,335.5 925.846,335.5C894.447,335.5 805.553,335.5 774.154,335.5C767.994,335.5 763,340.537 763,346.75C763,346.75 763,346.75 763,346.75C763,352.963 767.994,358 774.154,358C805.553,358 894.447,358 925.846,358C932.006,358 937,352.963 937,346.75C937,346.75 937,346.75 937,346.75Z" style="fill:white;"/>
            </g>
            <g transform="matrix(0.489028,0,0,0.666667,1011.87,217.333)">
                <path d="M937,346.75C937,343.766 935.384,340.905 932.508,338.795C929.632,336.685 925.731,335.5 921.663,335.5C888.679,335.5 811.321,335.5 778.337,335.5C774.269,335.5 770.368,336.685 767.492,338.795C764.616,340.905 763,343.766 763,346.75C763,346.75 763,346.75 763,346.75C763,349.734 764.616,352.595 767.492,354.705C770.368,356.815 774.269,358 778.337,358C811.321,358 888.679,358 921.663,358C925.731,358 929.632,356.815 932.508,354.705C935.384,352.595 937,349.734 937,346.75C937,346.75 937,346.75 937,346.75Z" style="fill:white;"/>
            </g>
            <g transform="matrix(0.587774,0,0,0.666667,936.528,286.333)">
                <path d="M937,346.75C937,340.537 931.287,335.5 924.24,335.5L775.76,335.5C772.376,335.5 769.13,336.685 766.737,338.795C764.344,340.905 763,343.766 763,346.75L763,346.75C763,352.963 768.713,358 775.76,358L924.24,358C931.287,358 937,352.963 937,346.75L937,346.75Z" style="fill:white;"/>
            </g>
        </g>
    </g>
</svg>
